<svg xmlns="http://www.w3.org/2000/svg" version="1.1" xmlns:xlink="http://www.w3.org/1999/xlink" xmlns:svgjs="http://svgjs.dev/svgjs" width="1450" height="567" preserveAspectRatio="none" viewBox="0 0 1450 567"><g mask="url(&quot;#SvgjsMask1082&quot;)" fill="none"><path d="M783.9387317785604 328.2810956867945L742.9194014441181 386.8627705418246 851.3015788938844 419.100928615973z" fill="rgba(28, 83, 142, 0.4)" class="triangle-float2"></path><path d="M907.6226140213472 94.25651916956056L770.179706032112 190.49507941708663 866.418266279638 327.9379874063219 1003.8611742688732 231.6994271587958z" fill="rgba(28, 83, 142, 0.4)" class="triangle-float3"></path><path d="M1062.666,505.768C1089.888,504.813,1115.285,493.134,1130.166,470.319C1146.672,445.013,1155.15,412.833,1140.533,386.391C1125.543,359.274,1093.603,346.504,1062.666,348.209C1034.462,349.764,1012.897,370,998.372,394.227C983.307,419.355,971.804,449.976,986.435,475.359C1001.078,500.763,1033.362,506.796,1062.666,505.768" fill="rgba(28, 83, 142, 0.4)" class="triangle-float1"></path><path d="M1112.83 304.5 a154.47 154.47 0 1 0 308.94 0 a154.47 154.47 0 1 0 -308.94 0z" fill="rgba(28, 83, 142, 0.4)" class="triangle-float3"></path><path d="M-72.524840746206 493.61019983948444L-17.296750304686853 585.5251776107034 92.96167113138208 456.7255530628152z" fill="rgba(28, 83, 142, 0.4)" class="triangle-float3"></path><path d="M546.6029648868039 645.1178177498483L650.8299418310289 603.0073856248652 608.7195097060458 498.78040868064005 504.4925327618207 540.8908408056233z" fill="rgba(28, 83, 142, 0.4)" class="triangle-float2"></path><path d="M687.7568355989521 457.78629148410204L564.3953344693357 412.8863770185252 519.4954200037589 536.2478781481416 642.8569211333752 581.1477926137184z" fill="rgba(28, 83, 142, 0.4)" class="triangle-float2"></path><path d="M1179.93 266.9 a107.32 107.32 0 1 0 214.64 0 a107.32 107.32 0 1 0 -214.64 0z" fill="rgba(28, 83, 142, 0.4)" class="triangle-float1"></path><path d="M1372.944,781.149C1431.667,781.064,1488.138,749.451,1513.966,696.713C1537.443,648.775,1515.498,594.524,1486.19,549.911C1460.292,510.489,1419.95,485.948,1372.944,482.045C1316.653,477.371,1252.73,480.779,1221.649,527.944C1188.337,578.494,1200.158,645.155,1231.21,697.124C1261.404,747.656,1314.078,781.234,1372.944,781.149" fill="rgba(28, 83, 142, 0.4)" class="triangle-float2"></path><path d="M855.5775348657378 578.5567061228704L984.6592359171906 625.5386030940475 1031.6411328883676 496.4569020425947 902.5594318369149 449.4750050714176z" fill="rgba(28, 83, 142, 0.4)" class="triangle-float1"></path><path d="M244.364,743.854C300.955,740.969,343.958,696.239,368.547,645.187C389.898,600.858,383.095,550.204,358.025,507.867C333.494,466.441,292.415,438.464,244.364,435.476C190.161,432.106,133.274,446.762,103.265,492.026C70.257,541.814,66.925,606.963,96.124,659.076C125.946,712.301,183.433,746.96,244.364,743.854" fill="rgba(28, 83, 142, 0.4)" class="triangle-float2"></path><path d="M1333.111,623.928C1386.173,627.15,1438.148,603.016,1466.541,558.074C1496.942,509.954,1503.001,448.671,1475.218,398.993C1446.822,348.22,1391.232,317.003,1333.111,319.495C1278.687,321.828,1234.32,361.273,1210.649,410.335C1189.868,453.407,1201.29,501.924,1225.077,543.412C1249.02,585.172,1285.063,621.01,1333.111,623.928" fill="rgba(28, 83, 142, 0.4)" class="triangle-float1"></path><path d="M1486.7252665475305 63.4275454482411L1415.5951695238066 31.758385864499914 1403.6564786600568 154.28811119195632z" fill="rgba(28, 83, 142, 0.4)" class="triangle-float2"></path><path d="M1309.4178330221548 444.3636638464632L1453.4704018982918 439.33323729404543 1448.439975345874 295.2806684179085 1304.387406469737 300.3110949703263z" fill="rgba(28, 83, 142, 0.4)" class="triangle-float3"></path><path d="M368.64090121359953 113.6679595522804L490.6371280639264 100.84563942387882 477.81480793552487-21.150587426448084 355.81858108519793-8.328267298046498z" fill="rgba(28, 83, 142, 0.4)" class="triangle-float1"></path></g><defs><mask id="SvgjsMask1082"><rect width="1450" height="567" fill="#ffffff"></rect></mask><style>
                @keyframes float1 {
                    0%{transform: translate(0, 0)}
                    50%{transform: translate(-10px, 0)}
                    100%{transform: translate(0, 0)}
                }

                .triangle-float1 {
                    animation: float1 5s infinite;
                }

                @keyframes float2 {
                    0%{transform: translate(0, 0)}
                    50%{transform: translate(-5px, -5px)}
                    100%{transform: translate(0, 0)}
                }

                .triangle-float2 {
                    animation: float2 4s infinite;
                }

                @keyframes float3 {
                    0%{transform: translate(0, 0)}
                    50%{transform: translate(0, -10px)}
                    100%{transform: translate(0, 0)}
                }

                .triangle-float3 {
                    animation: float3 6s infinite;
                }
            </style></defs></svg>