<svg xmlns="http://www.w3.org/2000/svg" version="1.1" xmlns:xlink="http://www.w3.org/1999/xlink" xmlns:svgjs="http://svgjs.dev/svgjs" width="1450" height="567" preserveAspectRatio="none" viewBox="0 0 1450 567"><g mask="url(&quot;#SvgjsMask1144&quot;)" fill="none"><path d="M66.66 507.19 a185.3 185.3 0 1 0 370.6 0 a185.3 185.3 0 1 0 -370.6 0z" fill="rgba(28, 83, 142, 0.4)" class="triangle-float1"></path><path d="M989.824,296.584C1018.861,297.717,1042.595,276.815,1057.948,252.143C1074.43,225.657,1086.635,192.938,1071.186,165.837C1055.638,138.562,1021.218,132.444,989.824,132.64C958.866,132.833,924.476,139.37,910.203,166.843C896.565,193.094,914.853,221.95,930.326,247.163C944.779,270.715,962.212,295.506,989.824,296.584" fill="rgba(28, 83, 142, 0.4)" class="triangle-float1"></path><path d="M1233.1 196.92 a157.91 157.91 0 1 0 315.82 0 a157.91 157.91 0 1 0 -315.82 0z" fill="rgba(28, 83, 142, 0.4)" class="triangle-float2"></path><path d="M-77.27 507.63 a105.55 105.55 0 1 0 211.1 0 a105.55 105.55 0 1 0 -211.1 0z" fill="rgba(28, 83, 142, 0.4)" class="triangle-float2"></path><path d="M992.696,422.076C1017.111,422.021,1041.411,414.296,1055.008,394.018C1070.293,371.223,1075.668,341.81,1062.758,317.591C1049.16,292.082,1021.568,275.691,992.696,277.12C965.812,278.451,946.416,300.256,933.702,323.981C921.818,346.155,916.933,372.738,929.899,394.297C942.542,415.32,968.164,422.131,992.696,422.076" fill="rgba(28, 83, 142, 0.4)" class="triangle-float1"></path><path d="M70.3 220.44 a150.42 150.42 0 1 0 300.84 0 a150.42 150.42 0 1 0 -300.84 0z" fill="rgba(28, 83, 142, 0.4)" class="triangle-float2"></path><path d="M1356.835,701.838C1409.318,700.353,1461.56,681.175,1488.182,635.921C1515.141,590.093,1511.016,532.441,1483.108,487.184C1456.539,444.099,1407.449,422.191,1356.835,422.925C1307.566,423.639,1263.777,449.558,1236.746,490.755C1206.372,537.048,1184.572,595.611,1211.951,643.736C1239.528,692.209,1301.088,703.415,1356.835,701.838" fill="rgba(28, 83, 142, 0.4)" class="triangle-float2"></path><path d="M751.2872350545348 555.2339967728245L899.0463977455549 581.2879238021429 777.3411620838532 407.4748340818044z" fill="rgba(28, 83, 142, 0.4)" class="triangle-float3"></path><path d="M736.7990992002121 39.73062852013921L780.4124721257134 137.9396509618388 836.9438781269408 62.91994136898891z" fill="rgba(28, 83, 142, 0.4)" class="triangle-float3"></path><path d="M1221.35,278.252C1264.026,278.055,1303.439,256.231,1325.451,219.67C1348.2,181.884,1352.635,134.698,1330.874,96.334C1308.845,57.499,1265.997,35.815,1221.35,36.145C1177.284,36.471,1136.513,59.703,1114.595,97.932C1092.79,135.965,1093.241,182.913,1115.575,220.637C1137.497,257.666,1178.318,278.45,1221.35,278.252" fill="rgba(28, 83, 142, 0.4)" class="triangle-float1"></path><path d="M573.2166988685779 615.8281195724833L648.9305747141844 589.7577414096555 571.9680695471395 489.2221167226595z" fill="rgba(28, 83, 142, 0.4)" class="triangle-float2"></path><path d="M606.5237524714643 414.38924014752547L667.6055777865912 492.57041133870155 754.3364219157918 361.85708777042305z" fill="rgba(28, 83, 142, 0.4)" class="triangle-float1"></path><path d="M371.83 277.77 a118.13 118.13 0 1 0 236.26 0 a118.13 118.13 0 1 0 -236.26 0z" fill="rgba(28, 83, 142, 0.4)" class="triangle-float2"></path><path d="M947.3334303750412 383.67228203386685L1071.805665949581 491.8743456451513 1180.0077295608653 367.40211007061157 1055.5354939863257 259.2000464593271z" fill="rgba(28, 83, 142, 0.4)" class="triangle-float2"></path><path d="M346.524,337.56C400.34,337.643,457.308,327.016,486.445,281.77C517.706,233.226,514.746,170.529,486.527,120.156C457.639,68.588,405.606,30.242,346.524,31.998C289.857,33.682,247.86,78.568,220.229,128.07C193.446,176.053,178.973,234.281,207.345,281.342C235.033,327.269,292.897,337.478,346.524,337.56" fill="rgba(28, 83, 142, 0.4)" class="triangle-float3"></path></g><defs><mask id="SvgjsMask1144"><rect width="1450" height="567" fill="#ffffff"></rect></mask><style>
                @keyframes float1 {
                    0%{transform: translate(0, 0)}
                    50%{transform: translate(-10px, 0)}
                    100%{transform: translate(0, 0)}
                }

                .triangle-float1 {
                    animation: float1 5s infinite;
                }

                @keyframes float2 {
                    0%{transform: translate(0, 0)}
                    50%{transform: translate(-5px, -5px)}
                    100%{transform: translate(0, 0)}
                }

                .triangle-float2 {
                    animation: float2 4s infinite;
                }

                @keyframes float3 {
                    0%{transform: translate(0, 0)}
                    50%{transform: translate(0, -10px)}
                    100%{transform: translate(0, 0)}
                }

                .triangle-float3 {
                    animation: float3 6s infinite;
                }
            </style></defs></svg>