<svg xmlns="http://www.w3.org/2000/svg" version="1.1" xmlns:xlink="http://www.w3.org/1999/xlink" xmlns:svgjs="http://svgjs.dev/svgjs" width="1440" height="560" preserveAspectRatio="none" viewBox="0 0 1440 560"><g mask="url(&quot;#SvgjsMask1571&quot;)" fill="none"><path d="M25.31 -64.2L137.03 0.3L137.03 129.3L25.31 193.8L-86.41 129.3L-86.41 0.3zM25.31 322.8L137.03 387.3L137.03 516.3L25.31 580.8L-86.41 516.3L-86.41 387.3zM248.75 -64.2L360.47 0.3L360.47 129.3L248.75 193.8L137.03 129.3L137.03 0.3zM248.75 322.8L360.47 387.3L360.47 516.3L248.75 580.8L137.03 516.3L137.03 387.3zM360.47 516.3L472.19 580.8L472.19 709.8L360.47 774.3L248.75 709.8L248.75 580.8zM472.19 322.8L583.91 387.3L583.91 516.3L472.19 580.8L360.47 516.3L360.47 387.3zM583.91 516.3L695.63 580.8L695.63 709.8L583.91 774.3L472.19 709.8L472.19 580.8zM695.63 -64.2L807.35 0.3L807.35 129.3L695.63 193.8L583.91 129.3L583.91 0.3zM919.07 -64.2L1030.79 0.3L1030.79 129.3L919.07 193.8L807.35 129.3L807.35 0.3zM1030.79 516.3L1142.51 580.8L1142.51 709.8L1030.79 774.3L919.07 709.8L919.07 580.8zM1142.51 -64.2L1254.23 0.3L1254.23 129.3L1142.51 193.8L1030.79 129.3L1030.79 0.3zM1142.51 322.8L1254.23 387.3L1254.23 516.3L1142.51 580.8L1030.79 516.3L1030.79 387.3zM1477.68 129.3L1589.4 193.8L1589.4 322.8L1477.68 387.3L1365.96 322.8L1365.96 193.8z" stroke="rgba(14, 42, 71, 1)" stroke-width="2"></path><path d="M12.41 -64.2 a12.9 12.9 0 1 0 25.8 0 a12.9 12.9 0 1 0 -25.8 0zM124.13 0.3 a12.9 12.9 0 1 0 25.8 0 a12.9 12.9 0 1 0 -25.8 0zM124.13 129.3 a12.9 12.9 0 1 0 25.8 0 a12.9 12.9 0 1 0 -25.8 0zM12.41 193.8 a12.9 12.9 0 1 0 25.8 0 a12.9 12.9 0 1 0 -25.8 0zM-99.31 129.3 a12.9 12.9 0 1 0 25.8 0 a12.9 12.9 0 1 0 -25.8 0zM-99.31 0.3 a12.9 12.9 0 1 0 25.8 0 a12.9 12.9 0 1 0 -25.8 0zM12.41 322.8 a12.9 12.9 0 1 0 25.8 0 a12.9 12.9 0 1 0 -25.8 0zM124.13 387.3 a12.9 12.9 0 1 0 25.8 0 a12.9 12.9 0 1 0 -25.8 0zM124.13 516.3 a12.9 12.9 0 1 0 25.8 0 a12.9 12.9 0 1 0 -25.8 0zM12.41 580.8 a12.9 12.9 0 1 0 25.8 0 a12.9 12.9 0 1 0 -25.8 0zM-99.31 516.3 a12.9 12.9 0 1 0 25.8 0 a12.9 12.9 0 1 0 -25.8 0zM-99.31 387.3 a12.9 12.9 0 1 0 25.8 0 a12.9 12.9 0 1 0 -25.8 0zM235.85 -64.2 a12.9 12.9 0 1 0 25.8 0 a12.9 12.9 0 1 0 -25.8 0zM347.57 0.3 a12.9 12.9 0 1 0 25.8 0 a12.9 12.9 0 1 0 -25.8 0zM347.57 129.3 a12.9 12.9 0 1 0 25.8 0 a12.9 12.9 0 1 0 -25.8 0zM235.85 193.8 a12.9 12.9 0 1 0 25.8 0 a12.9 12.9 0 1 0 -25.8 0zM235.85 322.8 a12.9 12.9 0 1 0 25.8 0 a12.9 12.9 0 1 0 -25.8 0zM347.57 387.3 a12.9 12.9 0 1 0 25.8 0 a12.9 12.9 0 1 0 -25.8 0zM347.57 516.3 a12.9 12.9 0 1 0 25.8 0 a12.9 12.9 0 1 0 -25.8 0zM235.85 580.8 a12.9 12.9 0 1 0 25.8 0 a12.9 12.9 0 1 0 -25.8 0zM459.29 580.8 a12.9 12.9 0 1 0 25.8 0 a12.9 12.9 0 1 0 -25.8 0zM459.29 709.8 a12.9 12.9 0 1 0 25.8 0 a12.9 12.9 0 1 0 -25.8 0zM347.57 774.3 a12.9 12.9 0 1 0 25.8 0 a12.9 12.9 0 1 0 -25.8 0zM235.85 709.8 a12.9 12.9 0 1 0 25.8 0 a12.9 12.9 0 1 0 -25.8 0zM459.29 322.8 a12.9 12.9 0 1 0 25.8 0 a12.9 12.9 0 1 0 -25.8 0zM571.01 387.3 a12.9 12.9 0 1 0 25.8 0 a12.9 12.9 0 1 0 -25.8 0zM571.01 516.3 a12.9 12.9 0 1 0 25.8 0 a12.9 12.9 0 1 0 -25.8 0zM682.73 580.8 a12.9 12.9 0 1 0 25.8 0 a12.9 12.9 0 1 0 -25.8 0zM682.73 709.8 a12.9 12.9 0 1 0 25.8 0 a12.9 12.9 0 1 0 -25.8 0zM571.01 774.3 a12.9 12.9 0 1 0 25.8 0 a12.9 12.9 0 1 0 -25.8 0zM682.73 -64.2 a12.9 12.9 0 1 0 25.8 0 a12.9 12.9 0 1 0 -25.8 0zM794.45 0.3 a12.9 12.9 0 1 0 25.8 0 a12.9 12.9 0 1 0 -25.8 0zM794.45 129.3 a12.9 12.9 0 1 0 25.8 0 a12.9 12.9 0 1 0 -25.8 0zM682.73 193.8 a12.9 12.9 0 1 0 25.8 0 a12.9 12.9 0 1 0 -25.8 0zM571.01 129.3 a12.9 12.9 0 1 0 25.8 0 a12.9 12.9 0 1 0 -25.8 0zM571.01 0.3 a12.9 12.9 0 1 0 25.8 0 a12.9 12.9 0 1 0 -25.8 0zM906.17 -64.2 a12.9 12.9 0 1 0 25.8 0 a12.9 12.9 0 1 0 -25.8 0zM1017.89 0.3 a12.9 12.9 0 1 0 25.8 0 a12.9 12.9 0 1 0 -25.8 0zM1017.89 129.3 a12.9 12.9 0 1 0 25.8 0 a12.9 12.9 0 1 0 -25.8 0zM906.17 193.8 a12.9 12.9 0 1 0 25.8 0 a12.9 12.9 0 1 0 -25.8 0zM1017.89 516.3 a12.9 12.9 0 1 0 25.8 0 a12.9 12.9 0 1 0 -25.8 0zM1129.61 580.8 a12.9 12.9 0 1 0 25.8 0 a12.9 12.9 0 1 0 -25.8 0zM1129.61 709.8 a12.9 12.9 0 1 0 25.8 0 a12.9 12.9 0 1 0 -25.8 0zM1017.89 774.3 a12.9 12.9 0 1 0 25.8 0 a12.9 12.9 0 1 0 -25.8 0zM906.17 709.8 a12.9 12.9 0 1 0 25.8 0 a12.9 12.9 0 1 0 -25.8 0zM906.17 580.8 a12.9 12.9 0 1 0 25.8 0 a12.9 12.9 0 1 0 -25.8 0zM1129.61 -64.2 a12.9 12.9 0 1 0 25.8 0 a12.9 12.9 0 1 0 -25.8 0zM1241.33 0.3 a12.9 12.9 0 1 0 25.8 0 a12.9 12.9 0 1 0 -25.8 0zM1241.33 129.3 a12.9 12.9 0 1 0 25.8 0 a12.9 12.9 0 1 0 -25.8 0zM1129.61 193.8 a12.9 12.9 0 1 0 25.8 0 a12.9 12.9 0 1 0 -25.8 0zM1129.61 322.8 a12.9 12.9 0 1 0 25.8 0 a12.9 12.9 0 1 0 -25.8 0zM1241.33 387.3 a12.9 12.9 0 1 0 25.8 0 a12.9 12.9 0 1 0 -25.8 0zM1241.33 516.3 a12.9 12.9 0 1 0 25.8 0 a12.9 12.9 0 1 0 -25.8 0zM1017.89 387.3 a12.9 12.9 0 1 0 25.8 0 a12.9 12.9 0 1 0 -25.8 0zM1464.78 129.3 a12.9 12.9 0 1 0 25.8 0 a12.9 12.9 0 1 0 -25.8 0zM1576.5 193.8 a12.9 12.9 0 1 0 25.8 0 a12.9 12.9 0 1 0 -25.8 0zM1576.5 322.8 a12.9 12.9 0 1 0 25.8 0 a12.9 12.9 0 1 0 -25.8 0zM1464.78 387.3 a12.9 12.9 0 1 0 25.8 0 a12.9 12.9 0 1 0 -25.8 0zM1353.06 322.8 a12.9 12.9 0 1 0 25.8 0 a12.9 12.9 0 1 0 -25.8 0zM1353.06 193.8 a12.9 12.9 0 1 0 25.8 0 a12.9 12.9 0 1 0 -25.8 0z" fill="rgba(14, 42, 71, 1)"></path><path d="M114.53 86.77L177.75 123.27L177.75 196.27L114.53 232.77L51.31 196.27L51.31 123.27zM51.31 196.27L114.53 232.77L114.53 305.77L51.31 342.27L-11.91 305.77L-11.91 232.77zM114.53 305.77L177.75 342.27L177.75 415.27L114.53 451.77L51.31 415.27L51.31 342.27zM51.31 415.27L114.53 451.77L114.53 524.77L51.31 561.27L-11.91 524.77L-11.91 451.77zM177.75 196.27L240.97 232.77L240.97 305.77L177.75 342.27L114.53 305.77L114.53 232.77zM177.75 415.27L240.97 451.77L240.97 524.77L177.75 561.27L114.53 524.77L114.53 451.77zM240.97 524.77L304.2 561.27L304.2 634.27L240.97 670.77L177.75 634.27L177.75 561.27zM367.42 524.77L430.64 561.27L430.64 634.27L367.42 670.77L304.2 634.27L304.2 561.27zM493.86 305.77L557.08 342.27L557.08 415.27L493.86 451.77L430.64 415.27L430.64 342.27zM493.86 524.77L557.08 561.27L557.08 634.27L493.86 670.77L430.64 634.27L430.64 561.27zM620.3 524.77L683.53 561.27L683.53 634.27L620.3 670.77L557.08 634.27L557.08 561.27zM683.53 -22.73L746.75 13.77L746.75 86.77L683.53 123.27L620.3 86.77L620.3 13.77zM746.75 305.77L809.97 342.27L809.97 415.27L746.75 451.77L683.53 415.27L683.53 342.27zM746.75 524.77L809.97 561.27L809.97 634.27L746.75 670.77L683.53 634.27L683.53 561.27zM936.41 -22.73L999.63 13.77L999.63 86.77L936.41 123.27L873.19 86.77L873.19 13.77zM999.63 86.77L1062.86 123.27L1062.86 196.27L999.63 232.77L936.41 196.27L936.41 123.27zM936.41 196.27L999.63 232.77L999.63 305.77L936.41 342.27L873.19 305.77L873.19 232.77zM936.41 415.27L999.63 451.77L999.63 524.77L936.41 561.27L873.19 524.77L873.19 451.77zM1062.86 -22.73L1126.08 13.77L1126.08 86.77L1062.86 123.27L999.63 86.77L999.63 13.77zM1062.86 196.27L1126.08 232.77L1126.08 305.77L1062.86 342.27L999.63 305.77L999.63 232.77zM1126.08 305.77L1189.3 342.27L1189.3 415.27L1126.08 451.77L1062.86 415.27L1062.86 342.27zM1189.3 -22.73L1252.52 13.77L1252.52 86.77L1189.3 123.27L1126.08 86.77L1126.08 13.77zM1252.52 86.77L1315.74 123.27L1315.74 196.27L1252.52 232.77L1189.3 196.27L1189.3 123.27zM1252.52 305.77L1315.74 342.27L1315.74 415.27L1252.52 451.77L1189.3 415.27L1189.3 342.27zM1189.3 415.27L1252.52 451.77L1252.52 524.77L1189.3 561.27L1126.08 524.77L1126.08 451.77zM1252.52 524.77L1315.74 561.27L1315.74 634.27L1252.52 670.77L1189.3 634.27L1189.3 561.27zM1315.74 196.27L1378.96 232.77L1378.96 305.77L1315.74 342.27L1252.52 305.77L1252.52 232.77zM1378.96 305.77L1442.19 342.27L1442.19 415.27L1378.96 451.77L1315.74 415.27L1315.74 342.27zM1315.74 415.27L1378.96 451.77L1378.96 524.77L1315.74 561.27L1252.52 524.77L1252.52 451.77zM1378.96 524.77L1442.19 561.27L1442.19 634.27L1378.96 670.77L1315.74 634.27L1315.74 561.27zM1442.19 196.27L1505.41 232.77L1505.41 305.77L1442.19 342.27L1378.96 305.77L1378.96 232.77zM1505.41 305.77L1568.63 342.27L1568.63 415.27L1505.41 451.77L1442.19 415.27L1442.19 342.27zM1505.41 524.77L1568.63 561.27L1568.63 634.27L1505.41 670.77L1442.19 634.27L1442.19 561.27z" stroke="url(&quot;#SvgjsLinearGradient1572&quot;)" stroke-width="2"></path></g><defs><mask id="SvgjsMask1571"><rect width="1440" height="560" fill="#ffffff"></rect></mask><linearGradient x1="220.03199999999998" y1="-220.02399999999997" x2="1219.9679999999998" y2="780.024" gradientUnits="userSpaceOnUse" id="SvgjsLinearGradient1572"><stop stop-color="#0e2a47" offset="0"></stop><stop stop-color="rgba(166, 201, 246, 1)" offset="1"></stop></linearGradient></defs></svg>