<svg xmlns="http://www.w3.org/2000/svg" version="1.1" xmlns:xlink="http://www.w3.org/1999/xlink" xmlns:svgjs="http://svgjs.dev/svgjs" width="1440" height="560" preserveAspectRatio="none" viewBox="0 0 1440 560"><g mask="url(&quot;#SvgjsMask1010&quot;)" fill="none"><path d="M-111.07 342.22L-111.07 342.22" stroke="#132e65" stroke-width="1.5"></path><path d="M-111.07 342.22L-80.73 521.74" stroke="#132e65" stroke-width="1.5"></path><path d="M-111.07 342.22L92.54 381.27" stroke="#132e65" stroke-width="1.5"></path><path d="M-111.07 342.22L73.59 498.17" stroke="#132e65" stroke-width="1.5"></path><path d="M-80.73 521.74L-80.73 521.74" stroke="#132e65" stroke-width="1.5"></path><path d="M-80.73 521.74L73.59 498.17" stroke="#132e65" stroke-width="1.5"></path><path d="M-80.73 521.74L-53.64 688.7" stroke="#132e65" stroke-width="1.5"></path><path d="M-80.73 521.74L37.85 697.64" stroke="#132e65" stroke-width="1.5"></path><path d="M-80.73 521.74L92.54 381.27" stroke="#132e65" stroke-width="1.5"></path><path d="M-53.64 688.7L-53.64 688.7" stroke="#132e65" stroke-width="1.5"></path><path d="M-53.64 688.7L37.85 697.64" stroke="#132e65" stroke-width="1.5"></path><path d="M-53.64 688.7L73.59 498.17" stroke="#132e65" stroke-width="1.5"></path><path d="M-53.64 688.7L201.5 668.4" stroke="#132e65" stroke-width="1.5"></path><path d="M-53.64 688.7L92.54 381.27" stroke="#132e65" stroke-width="1.5"></path><path d="M-53.64 688.7L-111.07 342.22" stroke="#132e65" stroke-width="1.5"></path><path d="M92.54 381.27L92.54 381.27" stroke="#132e65" stroke-width="1.5"></path><path d="M92.54 381.27L73.59 498.17" stroke="#132e65" stroke-width="1.5"></path><path d="M92.54 381.27L218.92 362.46" stroke="#132e65" stroke-width="1.5"></path><path d="M92.54 381.27L256.3 489.57" stroke="#132e65" stroke-width="1.5"></path><path d="M73.59 498.17L73.59 498.17" stroke="#132e65" stroke-width="1.5"></path><path d="M73.59 498.17L256.3 489.57" stroke="#132e65" stroke-width="1.5"></path><path d="M37.85 697.64L37.85 697.64" stroke="#132e65" stroke-width="1.5"></path><path d="M37.85 697.64L201.5 668.4" stroke="#132e65" stroke-width="1.5"></path><path d="M37.85 697.64L73.59 498.17" stroke="#132e65" stroke-width="1.5"></path><path d="M37.85 697.64L256.3 489.57" stroke="#132e65" stroke-width="1.5"></path><path d="M37.85 697.64L354.7 701.2" stroke="#132e65" stroke-width="1.5"></path><path d="M218.92 362.46L218.92 362.46" stroke="#132e65" stroke-width="1.5"></path><path d="M218.92 362.46L256.3 489.57" stroke="#132e65" stroke-width="1.5"></path><path d="M218.92 362.46L374.72 370.82" stroke="#132e65" stroke-width="1.5"></path><path d="M218.92 362.46L350.55 505.52" stroke="#132e65" stroke-width="1.5"></path><path d="M218.92 362.46L73.59 498.17" stroke="#132e65" stroke-width="1.5"></path><path d="M256.3 489.57L256.3 489.57" stroke="#132e65" stroke-width="1.5"></path><path d="M256.3 489.57L350.55 505.52" stroke="#132e65" stroke-width="1.5"></path><path d="M256.3 489.57L374.72 370.82" stroke="#132e65" stroke-width="1.5"></path><path d="M256.3 489.57L201.5 668.4" stroke="#132e65" stroke-width="1.5"></path><path d="M201.5 668.4L201.5 668.4" stroke="#132e65" stroke-width="1.5"></path><path d="M201.5 668.4L354.7 701.2" stroke="#132e65" stroke-width="1.5"></path><path d="M201.5 668.4L73.59 498.17" stroke="#132e65" stroke-width="1.5"></path><path d="M374.72 370.82L374.72 370.82" stroke="#132e65" stroke-width="1.5"></path><path d="M374.72 370.82L350.55 505.52" stroke="#132e65" stroke-width="1.5"></path><path d="M374.72 370.82L559.81 342.3" stroke="#132e65" stroke-width="1.5"></path><path d="M374.72 370.82L542.56 513.74" stroke="#132e65" stroke-width="1.5"></path><path d="M374.72 370.82L92.54 381.27" stroke="#132e65" stroke-width="1.5"></path><path d="M350.55 505.52L350.55 505.52" stroke="#132e65" stroke-width="1.5"></path><path d="M350.55 505.52L542.56 513.74" stroke="#132e65" stroke-width="1.5"></path><path d="M354.7 701.2L354.7 701.2" stroke="#132e65" stroke-width="1.5"></path><path d="M354.7 701.2L350.55 505.52" stroke="#132e65" stroke-width="1.5"></path><path d="M354.7 701.2L558.86 641.32" stroke="#132e65" stroke-width="1.5"></path><path d="M354.7 701.2L256.3 489.57" stroke="#132e65" stroke-width="1.5"></path><path d="M354.7 701.2L542.56 513.74" stroke="#132e65" stroke-width="1.5"></path><path d="M559.81 342.3L559.81 342.3" stroke="#132e65" stroke-width="1.5"></path><path d="M559.81 342.3L657.09 350.84" stroke="#132e65" stroke-width="1.5"></path><path d="M559.81 342.3L665.8 228.7" stroke="#132e65" stroke-width="1.5"></path><path d="M559.81 342.3L542.56 513.74" stroke="#132e65" stroke-width="1.5"></path><path d="M559.81 342.3L645.8 558.91" stroke="#132e65" stroke-width="1.5"></path><path d="M559.81 342.3L802.27 391.73" stroke="#132e65" stroke-width="1.5"></path><path d="M542.56 513.74L542.56 513.74" stroke="#132e65" stroke-width="1.5"></path><path d="M542.56 513.74L645.8 558.91" stroke="#132e65" stroke-width="1.5"></path><path d="M542.56 513.74L558.86 641.32" stroke="#132e65" stroke-width="1.5"></path><path d="M542.56 513.74L657.09 350.84" stroke="#132e65" stroke-width="1.5"></path><path d="M558.86 641.32L558.86 641.32" stroke="#132e65" stroke-width="1.5"></path><path d="M558.86 641.32L645.8 558.91" stroke="#132e65" stroke-width="1.5"></path><path d="M665.8 228.7L665.8 228.7" stroke="#132e65" stroke-width="1.5"></path><path d="M665.8 228.7L657.09 350.84" stroke="#132e65" stroke-width="1.5"></path><path d="M665.8 228.7L802.27 391.73" stroke="#132e65" stroke-width="1.5"></path><path d="M665.8 228.7L846.82 94.52" stroke="#132e65" stroke-width="1.5"></path><path d="M657.09 350.84L657.09 350.84" stroke="#132e65" stroke-width="1.5"></path><path d="M657.09 350.84L802.27 391.73" stroke="#132e65" stroke-width="1.5"></path><path d="M645.8 558.91L645.8 558.91" stroke="#132e65" stroke-width="1.5"></path><path d="M707.58 682.8L707.58 682.8" stroke="#132e65" stroke-width="1.5"></path><path d="M707.58 682.8L645.8 558.91" stroke="#132e65" stroke-width="1.5"></path><path d="M846.82 94.52L846.82 94.52" stroke="#132e65" stroke-width="1.5"></path><path d="M846.82 94.52L960.14 81.2" stroke="#132e65" stroke-width="1.5"></path><path d="M846.82 94.52L979.8 234.14" stroke="#132e65" stroke-width="1.5"></path><path d="M846.82 94.52L955.69 -68.54" stroke="#132e65" stroke-width="1.5"></path><path d="M846.82 94.52L1095.02 108.07" stroke="#132e65" stroke-width="1.5"></path><path d="M846.82 94.52L802.27 391.73" stroke="#132e65" stroke-width="1.5"></path><path d="M802.27 391.73L802.27 391.73" stroke="#132e65" stroke-width="1.5"></path><path d="M802.27 391.73L856.01 547.48" stroke="#132e65" stroke-width="1.5"></path><path d="M802.27 391.73L645.8 558.91" stroke="#132e65" stroke-width="1.5"></path><path d="M802.27 391.73L988.48 525.82" stroke="#132e65" stroke-width="1.5"></path><path d="M856.01 547.48L856.01 547.48" stroke="#132e65" stroke-width="1.5"></path><path d="M856.01 547.48L860.27 648" stroke="#132e65" stroke-width="1.5"></path><path d="M856.01 547.48L988.48 525.82" stroke="#132e65" stroke-width="1.5"></path><path d="M860.27 648L860.27 648" stroke="#132e65" stroke-width="1.5"></path><path d="M860.27 648L956.41 667.82" stroke="#132e65" stroke-width="1.5"></path><path d="M955.69 -68.54L955.69 -68.54" stroke="#132e65" stroke-width="1.5"></path><path d="M955.69 -68.54L960.14 81.2" stroke="#132e65" stroke-width="1.5"></path><path d="M955.69 -68.54L1150.46 -49.07" stroke="#132e65" stroke-width="1.5"></path><path d="M960.14 81.2L960.14 81.2" stroke="#132e65" stroke-width="1.5"></path><path d="M960.14 81.2L1095.02 108.07" stroke="#132e65" stroke-width="1.5"></path><path d="M979.8 234.14L979.8 234.14" stroke="#132e65" stroke-width="1.5"></path><path d="M979.8 234.14L960.14 81.2" stroke="#132e65" stroke-width="1.5"></path><path d="M979.8 234.14L1095.02 108.07" stroke="#132e65" stroke-width="1.5"></path><path d="M988.48 525.82L988.48 525.82" stroke="#132e65" stroke-width="1.5"></path><path d="M988.48 525.82L1125.52 536.36" stroke="#132e65" stroke-width="1.5"></path><path d="M988.48 525.82L956.41 667.82" stroke="#132e65" stroke-width="1.5"></path><path d="M988.48 525.82L860.27 648" stroke="#132e65" stroke-width="1.5"></path><path d="M956.41 667.82L956.41 667.82" stroke="#132e65" stroke-width="1.5"></path><path d="M956.41 667.82L856.01 547.48" stroke="#132e65" stroke-width="1.5"></path><path d="M1150.46 -49.07L1150.46 -49.07" stroke="#132e65" stroke-width="1.5"></path><path d="M1150.46 -49.07L1303.96 -48.62" stroke="#132e65" stroke-width="1.5"></path><path d="M1150.46 -49.07L1249.93 82.12" stroke="#132e65" stroke-width="1.5"></path><path d="M1150.46 -49.07L1095.02 108.07" stroke="#132e65" stroke-width="1.5"></path><path d="M1150.46 -49.07L960.14 81.2" stroke="#132e65" stroke-width="1.5"></path><path d="M1095.02 108.07L1095.02 108.07" stroke="#132e65" stroke-width="1.5"></path><path d="M1095.02 108.07L1157.82 236.33" stroke="#132e65" stroke-width="1.5"></path><path d="M1095.02 108.07L1249.93 82.12" stroke="#132e65" stroke-width="1.5"></path><path d="M1157.82 236.33L1157.82 236.33" stroke="#132e65" stroke-width="1.5"></path><path d="M1157.82 236.33L1292.74 215.94" stroke="#132e65" stroke-width="1.5"></path><path d="M1157.82 236.33L1241.58 378.79" stroke="#132e65" stroke-width="1.5"></path><path d="M1157.82 236.33L979.8 234.14" stroke="#132e65" stroke-width="1.5"></path><path d="M1157.82 236.33L1249.93 82.12" stroke="#132e65" stroke-width="1.5"></path><path d="M1157.82 236.33L960.14 81.2" stroke="#132e65" stroke-width="1.5"></path><path d="M1125.52 536.36L1125.52 536.36" stroke="#132e65" stroke-width="1.5"></path><path d="M1125.52 536.36L1139.37 643.61" stroke="#132e65" stroke-width="1.5"></path><path d="M1125.52 536.36L1303.16 540.99" stroke="#132e65" stroke-width="1.5"></path><path d="M1139.37 643.61L1139.37 643.61" stroke="#132e65" stroke-width="1.5"></path><path d="M1139.37 643.61L1253.74 669.21" stroke="#132e65" stroke-width="1.5"></path><path d="M1139.37 643.61L956.41 667.82" stroke="#132e65" stroke-width="1.5"></path><path d="M1139.37 643.61L988.48 525.82" stroke="#132e65" stroke-width="1.5"></path><path d="M1139.37 643.61L1303.16 540.99" stroke="#132e65" stroke-width="1.5"></path><path d="M1303.96 -48.62L1303.96 -48.62" stroke="#132e65" stroke-width="1.5"></path><path d="M1303.96 -48.62L1249.93 82.12" stroke="#132e65" stroke-width="1.5"></path><path d="M1303.96 -48.62L1409.77 45.36" stroke="#132e65" stroke-width="1.5"></path><path d="M1249.93 82.12L1249.93 82.12" stroke="#132e65" stroke-width="1.5"></path><path d="M1249.93 82.12L1292.74 215.94" stroke="#132e65" stroke-width="1.5"></path><path d="M1292.74 215.94L1292.74 215.94" stroke="#132e65" stroke-width="1.5"></path><path d="M1292.74 215.94L1414.47 200.17" stroke="#132e65" stroke-width="1.5"></path><path d="M1292.74 215.94L1241.58 378.79" stroke="#132e65" stroke-width="1.5"></path><path d="M1292.74 215.94L1409.77 45.36" stroke="#132e65" stroke-width="1.5"></path><path d="M1292.74 215.94L1448.88 357.84" stroke="#132e65" stroke-width="1.5"></path><path d="M1241.58 378.79L1241.58 378.79" stroke="#132e65" stroke-width="1.5"></path><path d="M1303.16 540.99L1303.16 540.99" stroke="#132e65" stroke-width="1.5"></path><path d="M1303.16 540.99L1405.17 541.52" stroke="#132e65" stroke-width="1.5"></path><path d="M1303.16 540.99L1253.74 669.21" stroke="#132e65" stroke-width="1.5"></path><path d="M1303.16 540.99L1241.58 378.79" stroke="#132e65" stroke-width="1.5"></path><path d="M1303.16 540.99L1404.11 703.97" stroke="#132e65" stroke-width="1.5"></path><path d="M1253.74 669.21L1253.74 669.21" stroke="#132e65" stroke-width="1.5"></path><path d="M1253.74 669.21L1404.11 703.97" stroke="#132e65" stroke-width="1.5"></path><path d="M1461.64 -59.23L1461.64 -59.23" stroke="#132e65" stroke-width="1.5"></path><path d="M1461.64 -59.23L1568.25 -103.85" stroke="#132e65" stroke-width="1.5"></path><path d="M1461.64 -59.23L1409.77 45.36" stroke="#132e65" stroke-width="1.5"></path><path d="M1461.64 -59.23L1303.96 -48.62" stroke="#132e65" stroke-width="1.5"></path><path d="M1461.64 -59.23L1594.3 88.83" stroke="#132e65" stroke-width="1.5"></path><path d="M1461.64 -59.23L1249.93 82.12" stroke="#132e65" stroke-width="1.5"></path><path d="M1461.64 -59.23L1414.47 200.17" stroke="#132e65" stroke-width="1.5"></path><path d="M1409.77 45.36L1409.77 45.36" stroke="#132e65" stroke-width="1.5"></path><path d="M1414.47 200.17L1414.47 200.17" stroke="#132e65" stroke-width="1.5"></path><path d="M1414.47 200.17L1409.77 45.36" stroke="#132e65" stroke-width="1.5"></path><path d="M1414.47 200.17L1448.88 357.84" stroke="#132e65" stroke-width="1.5"></path><path d="M1414.47 200.17L1608.91 248.3" stroke="#132e65" stroke-width="1.5"></path><path d="M1448.88 357.84L1448.88 357.84" stroke="#132e65" stroke-width="1.5"></path><path d="M1448.88 357.84L1592.69 383.28" stroke="#132e65" stroke-width="1.5"></path><path d="M1448.88 357.84L1575.14 487.62" stroke="#132e65" stroke-width="1.5"></path><path d="M1448.88 357.84L1405.17 541.52" stroke="#132e65" stroke-width="1.5"></path><path d="M1405.17 541.52L1405.17 541.52" stroke="#132e65" stroke-width="1.5"></path><path d="M1405.17 541.52L1404.11 703.97" stroke="#132e65" stroke-width="1.5"></path><path d="M1405.17 541.52L1543.89 653.41" stroke="#132e65" stroke-width="1.5"></path><path d="M1404.11 703.97L1404.11 703.97" stroke="#132e65" stroke-width="1.5"></path><path d="M1404.11 703.97L1543.89 653.41" stroke="#132e65" stroke-width="1.5"></path><path d="M1568.25 -103.85L1568.25 -103.85" stroke="#132e65" stroke-width="1.5"></path><path d="M1568.25 -103.85L1594.3 88.83" stroke="#132e65" stroke-width="1.5"></path><path d="M1568.25 -103.85L1409.77 45.36" stroke="#132e65" stroke-width="1.5"></path><path d="M1568.25 -103.85L1303.96 -48.62" stroke="#132e65" stroke-width="1.5"></path><path d="M1568.25 -103.85L1414.47 200.17" stroke="#132e65" stroke-width="1.5"></path><path d="M1594.3 88.83L1594.3 88.83" stroke="#132e65" stroke-width="1.5"></path><path d="M1594.3 88.83L1608.91 248.3" stroke="#132e65" stroke-width="1.5"></path><path d="M1594.3 88.83L1409.77 45.36" stroke="#132e65" stroke-width="1.5"></path><path d="M1594.3 88.83L1414.47 200.17" stroke="#132e65" stroke-width="1.5"></path><path d="M1594.3 88.83L1592.69 383.28" stroke="#132e65" stroke-width="1.5"></path><path d="M1608.91 248.3L1608.91 248.3" stroke="#132e65" stroke-width="1.5"></path><path d="M1608.91 248.3L1592.69 383.28" stroke="#132e65" stroke-width="1.5"></path><path d="M1592.69 383.28L1592.69 383.28" stroke="#132e65" stroke-width="1.5"></path><path d="M1592.69 383.28L1575.14 487.62" stroke="#132e65" stroke-width="1.5"></path><path d="M1592.69 383.28L1405.17 541.52" stroke="#132e65" stroke-width="1.5"></path><path d="M1575.14 487.62L1575.14 487.62" stroke="#132e65" stroke-width="1.5"></path><path d="M1575.14 487.62L1543.89 653.41" stroke="#132e65" stroke-width="1.5"></path><path d="M1575.14 487.62L1405.17 541.52" stroke="#132e65" stroke-width="1.5"></path><path d="M1543.89 653.41L1543.89 653.41" stroke="#132e65" stroke-width="1.5"></path><circle r="5" cx="-111.07" cy="342.22" fill="#132e65"></circle><circle r="5" cx="-80.73" cy="521.74" fill="#132e65"></circle><circle r="5" cx="-53.64" cy="688.7" fill="#132e65"></circle><circle r="5" cx="92.54" cy="381.27" fill="#132e65"></circle><circle r="5" cx="73.59" cy="498.17" fill="#132e65"></circle><circle r="5" cx="37.85" cy="697.64" fill="#132e65"></circle><circle r="5" cx="218.92" cy="362.46" fill="#132e65"></circle><circle r="5" cx="256.3" cy="489.57" fill="#132e65"></circle><circle r="5" cx="201.5" cy="668.4" fill="#132e65"></circle><circle r="5" cx="374.72" cy="370.82" fill="#132e65"></circle><circle r="5" cx="350.55" cy="505.52" fill="#132e65"></circle><circle r="5" cx="354.7" cy="701.2" fill="#132e65"></circle><circle r="5" cx="559.81" cy="342.3" fill="#132e65"></circle><circle r="5" cx="542.56" cy="513.74" fill="#132e65"></circle><circle r="5" cx="558.86" cy="641.32" fill="#132e65"></circle><circle r="5" cx="665.8" cy="228.7" fill="#132e65"></circle><circle r="5" cx="657.09" cy="350.84" fill="#132e65"></circle><circle r="5" cx="645.8" cy="558.91" fill="#132e65"></circle><circle r="5" cx="707.58" cy="682.8" fill="#132e65"></circle><circle r="5" cx="846.82" cy="94.52" fill="#132e65"></circle><circle r="5" cx="802.27" cy="391.73" fill="#132e65"></circle><circle r="5" cx="856.01" cy="547.48" fill="#132e65"></circle><circle r="5" cx="860.27" cy="648" fill="#132e65"></circle><circle r="5" cx="955.69" cy="-68.54" fill="#132e65"></circle><circle r="5" cx="960.14" cy="81.2" fill="#132e65"></circle><circle r="5" cx="979.8" cy="234.14" fill="#132e65"></circle><circle r="5" cx="988.48" cy="525.82" fill="#132e65"></circle><circle r="5" cx="956.41" cy="667.82" fill="#132e65"></circle><circle r="5" cx="1150.46" cy="-49.07" fill="#132e65"></circle><circle r="5" cx="1095.02" cy="108.07" fill="#132e65"></circle><circle r="5" cx="1157.82" cy="236.33" fill="#132e65"></circle><circle r="5" cx="1125.52" cy="536.36" fill="#132e65"></circle><circle r="5" cx="1139.37" cy="643.61" fill="#132e65"></circle><circle r="5" cx="1303.96" cy="-48.62" fill="#132e65"></circle><circle r="5" cx="1249.93" cy="82.12" fill="#132e65"></circle><circle r="5" cx="1292.74" cy="215.94" fill="#132e65"></circle><circle r="5" cx="1241.58" cy="378.79" fill="#132e65"></circle><circle r="5" cx="1303.16" cy="540.99" fill="#132e65"></circle><circle r="5" cx="1253.74" cy="669.21" fill="#132e65"></circle><circle r="5" cx="1461.64" cy="-59.23" fill="#132e65"></circle><circle r="5" cx="1409.77" cy="45.36" fill="#132e65"></circle><circle r="5" cx="1414.47" cy="200.17" fill="#132e65"></circle><circle r="5" cx="1448.88" cy="357.84" fill="#132e65"></circle><circle r="5" cx="1405.17" cy="541.52" fill="#132e65"></circle><circle r="5" cx="1404.11" cy="703.97" fill="#132e65"></circle><circle r="5" cx="1568.25" cy="-103.85" fill="#132e65"></circle><circle r="5" cx="1594.3" cy="88.83" fill="#132e65"></circle><circle r="5" cx="1608.91" cy="248.3" fill="#132e65"></circle><circle r="5" cx="1592.69" cy="383.28" fill="#132e65"></circle><circle r="5" cx="1575.14" cy="487.62" fill="#132e65"></circle><circle r="5" cx="1543.89" cy="653.41" fill="#132e65"></circle><path d="M-80.07 497.42L-80.07 497.42" stroke="hsl(228.5, 77.2%, 51.5%)" stroke-width="1.5"></path><path d="M-80.07 497.42L83.04 518.61" stroke="hsl(228.5, 77.2%, 51.5%)" stroke-width="1.5"></path><path d="M-80.07 497.42L84.2 643.97" stroke="hsl(228.5, 77.2%, 51.5%)" stroke-width="1.5"></path><path d="M-80.07 497.42L232.86 537.2" stroke="hsl(228.5, 77.2%, 51.5%)" stroke-width="1.5"></path><path d="M-80.07 497.42L193.02 681.43" stroke="hsl(228.5, 77.2%, 51.5%)" stroke-width="1.5"></path><path d="M232.86 537.2L232.86 537.2" stroke="hsl(228.5, 77.2%, 51.5%)" stroke-width="1.5"></path><path d="M232.86 537.2L193.02 681.43" stroke="hsl(228.5, 77.2%, 51.5%)" stroke-width="1.5"></path><path d="M232.86 537.2L83.04 518.61" stroke="hsl(228.5, 77.2%, 51.5%)" stroke-width="1.5"></path><path d="M232.86 537.2L381.86 496.94" stroke="hsl(228.5, 77.2%, 51.5%)" stroke-width="1.5"></path><path d="M232.86 537.2L84.2 643.97" stroke="hsl(228.5, 77.2%, 51.5%)" stroke-width="1.5"></path><path d="M232.86 537.2L381.2 675.48" stroke="hsl(228.5, 77.2%, 51.5%)" stroke-width="1.5"></path><path d="M232.86 537.2L498.42 689.41" stroke="hsl(228.5, 77.2%, 51.5%)" stroke-width="1.5"></path><path d="M193.02 681.43L193.02 681.43" stroke="hsl(228.5, 77.2%, 51.5%)" stroke-width="1.5"></path><path d="M193.02 681.43L84.2 643.97" stroke="hsl(228.5, 77.2%, 51.5%)" stroke-width="1.5"></path><path d="M193.02 681.43L381.2 675.48" stroke="hsl(228.5, 77.2%, 51.5%)" stroke-width="1.5"></path><path d="M193.02 681.43L83.04 518.61" stroke="hsl(228.5, 77.2%, 51.5%)" stroke-width="1.5"></path><path d="M193.02 681.43L381.86 496.94" stroke="hsl(228.5, 77.2%, 51.5%)" stroke-width="1.5"></path><path d="M193.02 681.43L498.42 689.41" stroke="hsl(228.5, 77.2%, 51.5%)" stroke-width="1.5"></path><path d="M965.24 397.12L965.24 397.12" stroke="hsl(228.5, 77.2%, 51.5%)" stroke-width="1.5"></path><path d="M965.24 397.12L1003.02 522.63" stroke="hsl(228.5, 77.2%, 51.5%)" stroke-width="1.5"></path><path d="M965.24 397.12L1099.76 368.76" stroke="hsl(228.5, 77.2%, 51.5%)" stroke-width="1.5"></path><path d="M965.24 397.12L791.7 393.05" stroke="hsl(228.5, 77.2%, 51.5%)" stroke-width="1.5"></path><path d="M1151.6 640.23L1151.6 640.23" stroke="hsl(228.5, 77.2%, 51.5%)" stroke-width="1.5"></path><path d="M1151.6 640.23L1147.94 561.44" stroke="hsl(228.5, 77.2%, 51.5%)" stroke-width="1.5"></path><path d="M1151.6 640.23L1237.51 639.18" stroke="hsl(228.5, 77.2%, 51.5%)" stroke-width="1.5"></path><path d="M1307.35 -71.36L1307.35 -71.36" stroke="hsl(228.5, 77.2%, 51.5%)" stroke-width="1.5"></path><path d="M1307.35 -71.36L1428.95 -64.27" stroke="hsl(228.5, 77.2%, 51.5%)" stroke-width="1.5"></path><path d="M1307.35 -71.36L1238.44 100.98" stroke="hsl(228.5, 77.2%, 51.5%)" stroke-width="1.5"></path><path d="M1307.35 -71.36L1443.2 102.62" stroke="hsl(228.5, 77.2%, 51.5%)" stroke-width="1.5"></path><path d="M1428.95 -64.27L1428.95 -64.27" stroke="hsl(228.5, 77.2%, 51.5%)" stroke-width="1.5"></path><path d="M1428.95 -64.27L1587.7 -80.54" stroke="hsl(228.5, 77.2%, 51.5%)" stroke-width="1.5"></path><path d="M1428.95 -64.27L1443.2 102.62" stroke="hsl(228.5, 77.2%, 51.5%)" stroke-width="1.5"></path><path d="M1458.99 691.9L1458.99 691.9" stroke="hsl(228.5, 77.2%, 51.5%)" stroke-width="1.5"></path><path d="M1458.99 691.9L1547.53 665.92" stroke="hsl(228.5, 77.2%, 51.5%)" stroke-width="1.5"></path><path d="M1458.99 691.9L1434.11 535.54" stroke="hsl(228.5, 77.2%, 51.5%)" stroke-width="1.5"></path><path d="M83.04 518.61L83.04 518.61" stroke="hsl(228.5, 77.2%, 51.5%)" stroke-width="1.5"></path><path d="M83.04 518.61L84.2 643.97" stroke="hsl(228.5, 77.2%, 51.5%)" stroke-width="1.5"></path><path d="M83.04 518.61L381.86 496.94" stroke="hsl(228.5, 77.2%, 51.5%)" stroke-width="1.5"></path><path d="M83.04 518.61L381.2 675.48" stroke="hsl(228.5, 77.2%, 51.5%)" stroke-width="1.5"></path><path d="M84.2 643.97L84.2 643.97" stroke="hsl(228.5, 77.2%, 51.5%)" stroke-width="1.5"></path><path d="M381.86 496.94L381.86 496.94" stroke="hsl(228.5, 77.2%, 51.5%)" stroke-width="1.5"></path><path d="M381.86 496.94L381.2 675.48" stroke="hsl(228.5, 77.2%, 51.5%)" stroke-width="1.5"></path><path d="M381.86 496.94L562.14 534.1" stroke="hsl(228.5, 77.2%, 51.5%)" stroke-width="1.5"></path><path d="M381.2 675.48L381.2 675.48" stroke="hsl(228.5, 77.2%, 51.5%)" stroke-width="1.5"></path><path d="M381.2 675.48L498.42 689.41" stroke="hsl(228.5, 77.2%, 51.5%)" stroke-width="1.5"></path><path d="M562.14 534.1L562.14 534.1" stroke="hsl(228.5, 77.2%, 51.5%)" stroke-width="1.5"></path><path d="M562.14 534.1L698.17 513.11" stroke="hsl(228.5, 77.2%, 51.5%)" stroke-width="1.5"></path><path d="M562.14 534.1L498.42 689.41" stroke="hsl(228.5, 77.2%, 51.5%)" stroke-width="1.5"></path><path d="M562.14 534.1L667.46 692.85" stroke="hsl(228.5, 77.2%, 51.5%)" stroke-width="1.5"></path><path d="M562.14 534.1L381.2 675.48" stroke="hsl(228.5, 77.2%, 51.5%)" stroke-width="1.5"></path><path d="M562.14 534.1L792.83 560.85" stroke="hsl(228.5, 77.2%, 51.5%)" stroke-width="1.5"></path><path d="M498.42 689.41L498.42 689.41" stroke="hsl(228.5, 77.2%, 51.5%)" stroke-width="1.5"></path><path d="M698.17 513.11L698.17 513.11" stroke="hsl(228.5, 77.2%, 51.5%)" stroke-width="1.5"></path><path d="M698.17 513.11L792.83 560.85" stroke="hsl(228.5, 77.2%, 51.5%)" stroke-width="1.5"></path><path d="M667.46 692.85L667.46 692.85" stroke="hsl(228.5, 77.2%, 51.5%)" stroke-width="1.5"></path><path d="M667.46 692.85L498.42 689.41" stroke="hsl(228.5, 77.2%, 51.5%)" stroke-width="1.5"></path><path d="M667.46 692.85L792.83 560.85" stroke="hsl(228.5, 77.2%, 51.5%)" stroke-width="1.5"></path><path d="M791.7 393.05L791.7 393.05" stroke="hsl(228.5, 77.2%, 51.5%)" stroke-width="1.5"></path><path d="M791.7 393.05L698.17 513.11" stroke="hsl(228.5, 77.2%, 51.5%)" stroke-width="1.5"></path><path d="M791.7 393.05L792.83 560.85" stroke="hsl(228.5, 77.2%, 51.5%)" stroke-width="1.5"></path><path d="M791.7 393.05L1003.02 522.63" stroke="hsl(228.5, 77.2%, 51.5%)" stroke-width="1.5"></path><path d="M792.83 560.85L792.83 560.85" stroke="hsl(228.5, 77.2%, 51.5%)" stroke-width="1.5"></path><path d="M1007.75 219.88L1007.75 219.88" stroke="hsl(228.5, 77.2%, 51.5%)" stroke-width="1.5"></path><path d="M1007.75 219.88L1111.28 195.61" stroke="hsl(228.5, 77.2%, 51.5%)" stroke-width="1.5"></path><path d="M1007.75 219.88L1099.76 368.76" stroke="hsl(228.5, 77.2%, 51.5%)" stroke-width="1.5"></path><path d="M1007.75 219.88L965.24 397.12" stroke="hsl(228.5, 77.2%, 51.5%)" stroke-width="1.5"></path><path d="M1007.75 219.88L1238.44 100.98" stroke="hsl(228.5, 77.2%, 51.5%)" stroke-width="1.5"></path><path d="M1003.02 522.63L1003.02 522.63" stroke="hsl(228.5, 77.2%, 51.5%)" stroke-width="1.5"></path><path d="M1003.02 522.63L978.46 642.52" stroke="hsl(228.5, 77.2%, 51.5%)" stroke-width="1.5"></path><path d="M978.46 642.52L978.46 642.52" stroke="hsl(228.5, 77.2%, 51.5%)" stroke-width="1.5"></path><path d="M978.46 642.52L1151.6 640.23" stroke="hsl(228.5, 77.2%, 51.5%)" stroke-width="1.5"></path><path d="M978.46 642.52L1147.94 561.44" stroke="hsl(228.5, 77.2%, 51.5%)" stroke-width="1.5"></path><path d="M978.46 642.52L792.83 560.85" stroke="hsl(228.5, 77.2%, 51.5%)" stroke-width="1.5"></path><path d="M978.46 642.52L965.24 397.12" stroke="hsl(228.5, 77.2%, 51.5%)" stroke-width="1.5"></path><path d="M978.46 642.52L1237.51 639.18" stroke="hsl(228.5, 77.2%, 51.5%)" stroke-width="1.5"></path><path d="M1111.28 195.61L1111.28 195.61" stroke="hsl(228.5, 77.2%, 51.5%)" stroke-width="1.5"></path><path d="M1099.76 368.76L1099.76 368.76" stroke="hsl(228.5, 77.2%, 51.5%)" stroke-width="1.5"></path><path d="M1147.94 561.44L1147.94 561.44" stroke="hsl(228.5, 77.2%, 51.5%)" stroke-width="1.5"></path><path d="M1147.94 561.44L1237.51 639.18" stroke="hsl(228.5, 77.2%, 51.5%)" stroke-width="1.5"></path><path d="M1147.94 561.44L1003.02 522.63" stroke="hsl(228.5, 77.2%, 51.5%)" stroke-width="1.5"></path><path d="M1238.44 100.98L1238.44 100.98" stroke="hsl(228.5, 77.2%, 51.5%)" stroke-width="1.5"></path><path d="M1238.44 100.98L1111.28 195.61" stroke="hsl(228.5, 77.2%, 51.5%)" stroke-width="1.5"></path><path d="M1238.44 100.98L1414.72 191.66" stroke="hsl(228.5, 77.2%, 51.5%)" stroke-width="1.5"></path><path d="M1296.13 410.83L1296.13 410.83" stroke="hsl(228.5, 77.2%, 51.5%)" stroke-width="1.5"></path><path d="M1296.13 410.83L1299.64 527.67" stroke="hsl(228.5, 77.2%, 51.5%)" stroke-width="1.5"></path><path d="M1296.13 410.83L1448.85 361.04" stroke="hsl(228.5, 77.2%, 51.5%)" stroke-width="1.5"></path><path d="M1296.13 410.83L1434.11 535.54" stroke="hsl(228.5, 77.2%, 51.5%)" stroke-width="1.5"></path><path d="M1299.64 527.67L1299.64 527.67" stroke="hsl(228.5, 77.2%, 51.5%)" stroke-width="1.5"></path><path d="M1299.64 527.67L1237.51 639.18" stroke="hsl(228.5, 77.2%, 51.5%)" stroke-width="1.5"></path><path d="M1299.64 527.67L1434.11 535.54" stroke="hsl(228.5, 77.2%, 51.5%)" stroke-width="1.5"></path><path d="M1299.64 527.67L1147.94 561.44" stroke="hsl(228.5, 77.2%, 51.5%)" stroke-width="1.5"></path><path d="M1299.64 527.67L1151.6 640.23" stroke="hsl(228.5, 77.2%, 51.5%)" stroke-width="1.5"></path><path d="M1237.51 639.18L1237.51 639.18" stroke="hsl(228.5, 77.2%, 51.5%)" stroke-width="1.5"></path><path d="M1443.2 102.62L1443.2 102.62" stroke="hsl(228.5, 77.2%, 51.5%)" stroke-width="1.5"></path><path d="M1443.2 102.62L1414.72 191.66" stroke="hsl(228.5, 77.2%, 51.5%)" stroke-width="1.5"></path><path d="M1443.2 102.62L1560.77 72.03" stroke="hsl(228.5, 77.2%, 51.5%)" stroke-width="1.5"></path><path d="M1443.2 102.62L1551.6 193.5" stroke="hsl(228.5, 77.2%, 51.5%)" stroke-width="1.5"></path><path d="M1443.2 102.62L1238.44 100.98" stroke="hsl(228.5, 77.2%, 51.5%)" stroke-width="1.5"></path><path d="M1414.72 191.66L1414.72 191.66" stroke="hsl(228.5, 77.2%, 51.5%)" stroke-width="1.5"></path><path d="M1414.72 191.66L1551.6 193.5" stroke="hsl(228.5, 77.2%, 51.5%)" stroke-width="1.5"></path><path d="M1414.72 191.66L1448.85 361.04" stroke="hsl(228.5, 77.2%, 51.5%)" stroke-width="1.5"></path><path d="M1414.72 191.66L1560.77 72.03" stroke="hsl(228.5, 77.2%, 51.5%)" stroke-width="1.5"></path><path d="M1414.72 191.66L1592.79 364.04" stroke="hsl(228.5, 77.2%, 51.5%)" stroke-width="1.5"></path><path d="M1448.85 361.04L1448.85 361.04" stroke="hsl(228.5, 77.2%, 51.5%)" stroke-width="1.5"></path><path d="M1448.85 361.04L1592.79 364.04" stroke="hsl(228.5, 77.2%, 51.5%)" stroke-width="1.5"></path><path d="M1434.11 535.54L1434.11 535.54" stroke="hsl(228.5, 77.2%, 51.5%)" stroke-width="1.5"></path><path d="M1434.11 535.54L1600.76 504.49" stroke="hsl(228.5, 77.2%, 51.5%)" stroke-width="1.5"></path><path d="M1434.11 535.54L1547.53 665.92" stroke="hsl(228.5, 77.2%, 51.5%)" stroke-width="1.5"></path><path d="M1434.11 535.54L1448.85 361.04" stroke="hsl(228.5, 77.2%, 51.5%)" stroke-width="1.5"></path><path d="M1587.7 -80.54L1587.7 -80.54" stroke="hsl(228.5, 77.2%, 51.5%)" stroke-width="1.5"></path><path d="M1587.7 -80.54L1560.77 72.03" stroke="hsl(228.5, 77.2%, 51.5%)" stroke-width="1.5"></path><path d="M1560.77 72.03L1560.77 72.03" stroke="hsl(228.5, 77.2%, 51.5%)" stroke-width="1.5"></path><path d="M1560.77 72.03L1551.6 193.5" stroke="hsl(228.5, 77.2%, 51.5%)" stroke-width="1.5"></path><path d="M1551.6 193.5L1551.6 193.5" stroke="hsl(228.5, 77.2%, 51.5%)" stroke-width="1.5"></path><path d="M1551.6 193.5L1592.79 364.04" stroke="hsl(228.5, 77.2%, 51.5%)" stroke-width="1.5"></path><path d="M1551.6 193.5L1448.85 361.04" stroke="hsl(228.5, 77.2%, 51.5%)" stroke-width="1.5"></path><path d="M1551.6 193.5L1587.7 -80.54" stroke="hsl(228.5, 77.2%, 51.5%)" stroke-width="1.5"></path><path d="M1592.79 364.04L1592.79 364.04" stroke="hsl(228.5, 77.2%, 51.5%)" stroke-width="1.5"></path><path d="M1592.79 364.04L1600.76 504.49" stroke="hsl(228.5, 77.2%, 51.5%)" stroke-width="1.5"></path><path d="M1592.79 364.04L1434.11 535.54" stroke="hsl(228.5, 77.2%, 51.5%)" stroke-width="1.5"></path><path d="M1600.76 504.49L1600.76 504.49" stroke="hsl(228.5, 77.2%, 51.5%)" stroke-width="1.5"></path><path d="M1547.53 665.92L1547.53 665.92" stroke="hsl(228.5, 77.2%, 51.5%)" stroke-width="1.5"></path><path d="M1547.53 665.92L1600.76 504.49" stroke="hsl(228.5, 77.2%, 51.5%)" stroke-width="1.5"></path><path d="M1547.53 665.92L1299.64 527.67" stroke="hsl(228.5, 77.2%, 51.5%)" stroke-width="1.5"></path><path d="M1547.53 665.92L1592.79 364.04" stroke="hsl(228.5, 77.2%, 51.5%)" stroke-width="1.5"></path><path d="M1547.53 665.92L1237.51 639.18" stroke="hsl(228.5, 77.2%, 51.5%)" stroke-width="1.5"></path><circle r="25" cx="-80.07" cy="497.42" fill="url(&quot;#SvgjsRadialGradient1011&quot;)"></circle><circle r="25" cx="232.86" cy="537.2" fill="url(&quot;#SvgjsRadialGradient1011&quot;)"></circle><circle r="25" cx="193.02" cy="681.43" fill="url(&quot;#SvgjsRadialGradient1011&quot;)"></circle><circle r="25" cx="965.24" cy="397.12" fill="url(&quot;#SvgjsRadialGradient1011&quot;)"></circle><circle r="25" cx="1151.6" cy="640.23" fill="url(&quot;#SvgjsRadialGradient1011&quot;)"></circle><circle r="25" cx="1307.35" cy="-71.36" fill="url(&quot;#SvgjsRadialGradient1011&quot;)"></circle><circle r="25" cx="1428.95" cy="-64.27" fill="url(&quot;#SvgjsRadialGradient1011&quot;)"></circle><circle r="25" cx="1458.99" cy="691.9" fill="url(&quot;#SvgjsRadialGradient1011&quot;)"></circle><circle r="5" cx="83.04" cy="518.61" fill="#8b9ad9"></circle><circle r="5" cx="84.2" cy="643.97" fill="#8b9ad9"></circle><circle r="5" cx="381.86" cy="496.94" fill="#8b9ad9"></circle><circle r="5" cx="381.2" cy="675.48" fill="#8b9ad9"></circle><circle r="5" cx="562.14" cy="534.1" fill="#8b9ad9"></circle><circle r="5" cx="498.42" cy="689.41" fill="#8b9ad9"></circle><circle r="5" cx="698.17" cy="513.11" fill="#8b9ad9"></circle><circle r="5" cx="667.46" cy="692.85" fill="#8b9ad9"></circle><circle r="5" cx="791.7" cy="393.05" fill="#8b9ad9"></circle><circle r="5" cx="792.83" cy="560.85" fill="#8b9ad9"></circle><circle r="5" cx="1007.75" cy="219.88" fill="#8b9ad9"></circle><circle r="5" cx="1003.02" cy="522.63" fill="#8b9ad9"></circle><circle r="5" cx="978.46" cy="642.52" fill="#8b9ad9"></circle><circle r="5" cx="1111.28" cy="195.61" fill="#8b9ad9"></circle><circle r="5" cx="1099.76" cy="368.76" fill="#8b9ad9"></circle><circle r="5" cx="1147.94" cy="561.44" fill="#8b9ad9"></circle><circle r="5" cx="1238.44" cy="100.98" fill="#8b9ad9"></circle><circle r="5" cx="1296.13" cy="410.83" fill="#8b9ad9"></circle><circle r="5" cx="1299.64" cy="527.67" fill="#8b9ad9"></circle><circle r="5" cx="1237.51" cy="639.18" fill="#8b9ad9"></circle><circle r="5" cx="1443.2" cy="102.62" fill="#8b9ad9"></circle><circle r="5" cx="1414.72" cy="191.66" fill="#8b9ad9"></circle><circle r="5" cx="1448.85" cy="361.04" fill="#8b9ad9"></circle><circle r="5" cx="1434.11" cy="535.54" fill="#8b9ad9"></circle><circle r="5" cx="1587.7" cy="-80.54" fill="#8b9ad9"></circle><circle r="5" cx="1560.77" cy="72.03" fill="#8b9ad9"></circle><circle r="5" cx="1551.6" cy="193.5" fill="#8b9ad9"></circle><circle r="5" cx="1592.79" cy="364.04" fill="#8b9ad9"></circle><circle r="5" cx="1600.76" cy="504.49" fill="#8b9ad9"></circle><circle r="5" cx="1547.53" cy="665.92" fill="#8b9ad9"></circle></g><defs><mask id="SvgjsMask1010"><rect width="1440" height="560" fill="#ffffff"></rect></mask><radialGradient id="SvgjsRadialGradient1011"><stop stop-color="#ffffff" offset="0.1"></stop><stop stop-color="#1735b3" offset="0.2"></stop><stop stop-color="rgba(23, 53, 179, 0)" offset="1"></stop></radialGradient></defs></svg>